# xmcd
#
# Track frame offsets:
#	150
#	12892
#	26454
#	39765
#	53914
#	69026
#	83725
#	96553
#	110502
#	125066
#	140320
#	154870
#	168886
#	183645
#	199124
#	212758
#
# Disc length: 3017 seconds
#
# Revision: 0
# Processed by: cddbd v1.5.2PL0 Copyright (c) Steve Scherf et al.
# Submitted via: EasyCDDAExtractor 11.5.3.1
#
DISCID=d20bc710
DTITLE=Various Artist - Blues Box 2
DYEAR=1900
DGENRE=Blues
TTITLE0=The Bandana Girls - Money is Honey
TTITLE1=The Bandana Girls - Part Time Papa
TTITLE2=Lu Barker and Fly Cats - New Orleans Blues
TTITLE3=Lu Barker - Lu's Blues
TTITLE4=Bea Booze - Uncle Sam Come And Get Him
TTITLE5=Bea Booze - See See Rider Blues
TTITLE6=Lee Brown - My Little Girl
TTITLE7=Lee Brown - Lucille Blues
TTITLE8=Sweet Georgia Brown - The Low Down Lonely Blues
TTITLE9=Sweet Georgia Brown - Black Cat Bone
TTITLE10=Wingy Carpenter and His Wingies - Put Me Back in the Alley
TTITLE11=Wingy Carpenter and His Wingies - Team Up
TTITLE12=Rosetta Crawford with the Hep Cats - Stop It Joe
TTITLE13=Rosetta Crawford with the Hep Cats - My Man Jumped Salty On Me
TTITLE14=George Davis - Flesh Crawling Blues
TTITLE15=George Davis - I Don't Want You
EXTD=
EXTT0=
EXTT1=
EXTT2=
EXTT3=
EXTT4=
EXTT5=
EXTT6=
EXTT7=
EXTT8=
EXTT9=
EXTT10=
EXTT11=
EXTT12=
EXTT13=
EXTT14=
EXTT15=
PLAYORDER=
